<svg xmlns="http://www.w3.org/2000/svg" viewBox="0 0 24 24" fill="none" aria-hidden="true">
  <path d="M12 21.2s-7.6-4.2-7.6-10.4a4.4 4.4 0 0 1 7.6-3 4.4 4.4 0 0 1 7.6 3c0 6.2-7.6 10.4-7.6 10.4z" fill="#fff5f0" stroke="#f26f61" stroke-width="1.5" stroke-linejoin="round"/>
  <circle cx="8.8" cy="10.2" r="1.5" fill="#f26f61"/>
  <circle cx="15.2" cy="10.2" r="1.5" fill="#f26f61"/>
  <path d="M6.6 14.6c.4-1.2 1.3-1.9 2.2-1.9s1.8.7 2.2 1.9" stroke="#f26f61" stroke-width="1.3" stroke-linecap="round"/>
  <path d="M12.8 14.6c.4-1.2 1.3-1.9 2.2-1.9s1.8.7 2.2 1.9" stroke="#f26f61" stroke-width="1.3" stroke-linecap="round"/>
  <ellipse cx="10.6" cy="16.6" rx=".7" ry=".9" fill="#f26f61"/>
  <ellipse cx="13.4" cy="16.6" rx=".7" ry=".9" fill="#f26f61"/>
  <ellipse cx="9.3" cy="15.4" rx=".55" ry=".75" fill="#f8a89f"/>
  <ellipse cx="14.7" cy="15.4" rx=".55" ry=".75" fill="#f8a89f"/>
  <path d="M12 18.6c-1.2 0-2.1.9-2.1 1.8 0 .75.6 1.2 1.3 1.2.4 0 .55-.15.8-.15s.4.15.8.15c.7 0 1.3-.45 1.3-1.2 0-.9-.9-1.8-2.1-1.8z" fill="#f26f61"/>
</svg>
