<svg xmlns="http://www.w3.org/2000/svg" width="56" height="56" viewBox="0 0 56 56" fill="none">
  <rect width="56" height="56" rx="14" fill="#FDF0EB"/>
  <path d="M33.5 18.5c0 2.2 1.8 4 4 4 .5 0 1-.1 1.5-.3.2.7.3 1.4.3 2.2 0 6.9-5.6 12.6-12.6 12.6-6.5 0-11.7-5.1-11.7-11.5 0-6.7 5.6-12.1 12.4-12.1.7 0 1.3.1 1.9.2-.4.7-.8 1.8-.8 2.9 0 2.2 1.8 4 4 4 .4 0 .7 0 1-.1v.1Z" stroke="#F58C7C" stroke-width="2.2" stroke-linejoin="round"/>
  <circle cx="23" cy="23.5" r="1.6" fill="#F58C7C"/>
  <circle cx="21" cy="30" r="1.6" fill="#F58C7C"/>
  <circle cx="28.5" cy="28.5" r="1.6" fill="#F58C7C"/>
  <circle cx="31.5" cy="34" r="1.6" fill="#F58C7C"/>
</svg>