<svg xmlns="http://www.w3.org/2000/svg" width="680" height="430" viewBox="0 0 680 430" fill="none">
  <rect width="680" height="430" rx="40" fill="#FFF8F3"/>
  <path d="M116 384C74 319 81 227 132 163c65-82 182-117 297-101 93 13 179 61 196 147 15 77-19 154-110 175H116Z" fill="url(#bg)"/>
  <circle cx="131" cy="316" r="28" fill="#F7CFCB" opacity=".9"/>
  <circle cx="533" cy="300" r="52" fill="#FFFDFB" opacity=".72"/>
  <circle cx="582" cy="110" r="18" fill="#F7D9D6" opacity=".75"/>
  <circle cx="214" cy="80" r="12" fill="#F58C7C" opacity=".45"/>

  <!-- plant -->
  <path d="M176 264c-14-40-11-76 9-112" stroke="#A9B97D" stroke-width="5" stroke-linecap="round"/>
  <path d="M183 196c-31-14-51-36-61-67 30 3 53 25 61 67Z" fill="#B8C889"/>
  <path d="M194 214c31-13 56-34 73-65-34 0-63 24-73 65Z" fill="#C9D89A"/>
  <path d="M186 252c-27-14-45-35-56-61 28-2 49 19 56 61Z" fill="#B3C380"/>
  <path d="M196 239c22-8 39-21 51-40-23-1-43 13-51 40Z" fill="#D6E2A7"/>
  <path d="M132 290h88l-8 66h-72l-8-66Z" fill="#EFC8B4"/>
  <path d="M127 289c0-9 7-16 16-16h66c9 0 16 7 16 16v4h-98v-4Z" fill="#DDAE95"/>
  <ellipse cx="176" cy="289" rx="43" ry="8" fill="#E6BAA5"/>

  <!-- open/coral book -->
  <g transform="translate(250 122) rotate(-8)">
    <rect x="0" y="8" width="150" height="192" rx="16" fill="#E75F54"/>
    <rect x="18" y="0" width="150" height="196" rx="16" fill="#F58C7C"/>
    <path d="M95 56c-18-22-49-7-40 19 5 16 22 26 40 38 18-12 35-22 40-38 8-26-23-41-40-19Z" fill="#FFF8F3"/>
    <path d="M31 145c18-12 38-18 59-18 21 0 41 6 59 18" stroke="#FFF3EE" stroke-width="4" stroke-linecap="round" opacity=".75"/>
    <path d="M30 162c18-12 39-18 60-18 21 0 41 6 58 18" stroke="#FFF3EE" stroke-width="4" stroke-linecap="round" opacity=".55"/>
  </g>

  <!-- pen -->
  <g transform="translate(468 138) rotate(21)">
    <rect x="0" y="0" width="24" height="198" rx="11" fill="#6D4B3B"/>
    <rect x="24" y="0" width="16" height="198" rx="8" fill="#8E6957"/>
    <path d="M0 190h40l-20 34-20-34Z" fill="#D9B39A"/>
    <rect x="-2" y="-8" width="44" height="26" rx="10" fill="#5D3C30"/>
  </g>

  <!-- coffee cup -->
  <g transform="translate(474 256)">
    <path d="M0 18c0-13 10-23 23-23h57c13 0 23 10 23 23v58H0V18Z" fill="#F5D5C5"/>
    <path d="M14 25h75v49H14V25Z" fill="#FFF8F3" opacity=".72"/>
    <path d="M101 24c22-3 39 8 42 25 3 18-9 34-31 38" stroke="#F0C9B5" stroke-width="10" stroke-linecap="round"/>
    <path d="M24 4c0-11 8-20 18-20M50 4c0-11 8-20 18-20" stroke="#E8BEAA" stroke-width="5" stroke-linecap="round" opacity=".8"/>
  </g>

  <!-- small hearts -->
  <path d="M558 96c-8-10-23-3-19 9 2 7 10 12 19 18 9-6 17-11 19-18 4-12-11-19-19-9Z" fill="#F58C7C"/>
  <path d="M228 112c-6-8-18-2-14 8 2 6 8 10 14 14 6-4 12-8 14-14 4-10-8-16-14-8Z" fill="#F7B3AA"/>

  <defs>
    <linearGradient id="bg" x1="101" y1="95" x2="596" y2="391" gradientUnits="userSpaceOnUse">
      <stop stop-color="#FFF5EF"/>
      <stop offset="1" stop-color="#F8D9D7"/>
    </linearGradient>
  </defs>
</svg>
