<svg xmlns="http://www.w3.org/2000/svg" width="56" height="56" viewBox="0 0 56 56" fill="none">
  <rect width="56" height="56" rx="18" fill="#FDF0EB"/>
  <path d="M18 24.5c0-5.5 4.5-10 10-10s10 4.5 10 10v1.8c0 1.8.7 3.5 2 4.8l1.3 1.3c1.6 1.6.5 4.3-1.8 4.3H16.5c-2.3 0-3.4-2.7-1.8-4.3l1.3-1.3c1.3-1.3 2-3 2-4.8v-1.8Z" fill="#F58C7C"/>
  <path d="M23 39.5c.7 2.4 2.7 4 5 4s4.3-1.6 5-4" stroke="#F58C7C" stroke-width="2.4" stroke-linecap="round"/>
  <circle cx="22" cy="25" r="2" fill="#FFF8F3"/>
  <circle cx="34" cy="25" r="2" fill="#FFF8F3"/>
  <path d="M24 31c1.1 1.4 2.5 2.1 4 2.1s2.9-.7 4-2.1" stroke="#FFF8F3" stroke-width="2.2" stroke-linecap="round"/>
</svg>